<svg width="924" height="268" viewBox="0 0 924 268" fill="none" xmlns="http://www.w3.org/2000/svg">
<path d="M126.53 10.6409C136.276 18.588 142.701 29.5708 144.217 42.0706C144.425 44.1869 144.622 46.3041 144.811 48.4222C146.607 65.3004 150.457 77.943 163.916 89.2933C172.839 95.8288 182.278 98.1321 193.123 98.9847C209.172 100.444 221.058 105.067 232.311 117.047C241.507 128.753 244.703 141.2 243.581 155.85C241.964 168.989 234.58 178.877 224.764 187.258C216.214 193.494 206.688 195.819 196.311 196.422C186.922 197.137 179.532 200.916 173.311 208.047C169.13 214.553 167.019 221.279 165.893 228.86C163.972 241.732 159.801 252.105 149.373 260.422C138.578 267.989 125.978 267.95 113.311 267.047C100.334 264.693 90.6908 252.186 83.3734 241.985C76.694 233.014 68.4321 227.767 57.3109 226.047C55.3532 225.956 53.3953 225.867 51.4364 225.808C36.0367 225.289 23.2494 220.62 12.4359 209.235C3.70563 198.899 -0.393166 186.515 0.0296407 172.985C1.21998 160.552 7.00122 148.465 16.3109 140.047C29.3456 130.261 42.2369 126.753 58.3109 128.047C71.307 130.374 83.242 137.559 91.3109 148.047C96.1549 155.819 99.5184 163.863 101.608 172.77C102.906 176.976 105.387 179.886 109.182 182.176C114.773 184.464 120.951 183.458 126.498 181.485C136.429 177.018 140.649 168.945 144.428 159.153C147.86 147.08 144.704 133.337 138.881 122.492C131.114 110.397 121.051 103.663 107.311 100.047C103.333 99.2277 99.5072 98.953 95.4496 98.8592C82.2742 98.4772 71.1826 95.2096 61.3109 86.0472C60.6754 85.4787 60.0399 84.9102 59.3851 84.3245C49.9684 75.4724 45.3089 64.6209 44.785 51.7252C44.5924 37.9683 47.9208 27.3459 57.3109 17.0472C57.8794 16.4104 58.4478 15.7736 59.0335 15.1175C77.159 -4.12274 105.724 -4.30431 126.53 10.6409Z" fill="#E64E00"/>
<path d="M77.0609 135.235C90.6696 144.636 97.8659 156.819 101.608 172.77C102.906 176.976 105.387 179.886 109.182 182.176C114.773 184.464 120.951 183.458 126.498 181.485C135.278 177.535 139.856 170.831 143.311 162.047C144.457 158.411 145.443 154.759 146.311 151.047C146.641 151.047 146.971 151.047 147.311 151.047C147.469 151.797 147.628 152.548 147.791 153.321C151.289 168.665 158.453 179.815 171.764 188.578C177.987 192.167 184.153 194.425 191.311 195.047C190.002 197.666 188.948 197.711 186.248 198.735C177.997 202.316 172.952 207.388 169.268 215.582C167.565 219.968 166.584 224.21 165.893 228.86C163.972 241.732 159.801 252.105 149.373 260.422C138.578 267.989 125.978 267.95 113.311 267.047C100.334 264.693 90.6908 252.186 83.3734 241.985C76.694 233.014 68.4321 227.767 57.3109 226.047C55.3532 225.956 53.3953 225.867 51.4364 225.808C36.0367 225.289 23.2494 220.62 12.4359 209.235C3.70563 198.899 -0.393166 186.514 0.0296407 172.985C1.21998 160.552 7.00122 148.465 16.3109 140.047C34.6437 126.283 56.9126 123.235 77.0609 135.235Z" fill="#002A93"/>
<path d="M164.311 185.047C168.04 186.46 171.483 188.17 174.998 190.047C180.371 192.777 185.35 194.282 191.311 195.047C190.311 197.047 190.311 197.047 187.807 197.899C186.798 198.154 185.788 198.409 184.748 198.672C183.736 198.933 182.725 199.193 181.682 199.461C180.9 199.655 180.117 199.848 179.311 200.047C177.85 197.4 177.311 196.153 177.311 193.047C174.671 192.387 172.031 191.727 169.311 191.047C169.311 190.387 169.311 189.727 169.311 189.047C168.651 189.047 167.991 189.047 167.311 189.047C167.311 188.387 167.311 187.727 167.311 187.047C166.321 186.717 165.331 186.387 164.311 186.047C164.311 185.717 164.311 185.387 164.311 185.047Z" fill="#0B279A"/>
<path d="M117.311 5.04717C122.642 8.05798 127.19 11.5276 131.311 16.0472C130.321 16.0472 129.331 16.0472 128.311 16.0472C128.311 15.3872 128.311 14.7272 128.311 14.0472C125.341 13.5522 125.341 13.5522 122.311 13.0472C122.311 12.3872 122.311 11.7272 122.311 11.0472C121.63 10.779 120.95 10.5109 120.248 10.2347C118.651 9.58876 117.057 8.93046 115.491 8.21124C113.788 7.43478 112.051 6.73645 110.311 6.04717C109.321 6.54217 109.321 6.54217 108.311 7.04717C107.321 5.72717 106.331 4.40717 105.311 3.04717C109.843 1.53651 113.04 3.18097 117.311 5.04717Z" fill="#F0560B"/>
<path d="M208.311 101.047C206.991 102.367 205.671 103.687 204.311 105.047C203.981 104.387 203.651 103.727 203.311 103.047C201.547 103.078 201.547 103.078 199.748 103.11C195.837 103.117 192.166 102.69 188.311 102.047C188.311 101.717 188.311 101.387 188.311 101.047C194.664 99.3529 201.958 99.3529 208.311 101.047Z" fill="#EC4906"/>
<path d="M146.311 151.047C146.641 151.047 146.971 151.047 147.311 151.047C148.301 155.337 149.291 159.627 150.311 164.047C149.321 164.047 148.331 164.047 147.311 164.047C146.981 164.707 146.651 165.367 146.311 166.047C145.651 166.047 144.991 166.047 144.311 166.047C142.996 162.389 143.656 159.967 144.748 156.297C145.036 155.312 145.323 154.327 145.619 153.313C145.848 152.565 146.076 151.817 146.311 151.047Z" fill="#142A9A"/>
<path d="M151.311 169.047C155.563 173.17 159.447 177.56 163.311 182.047C162.651 182.707 161.991 183.367 161.311 184.047C157.957 182.659 156.198 181.161 154.311 178.047C154.311 177.057 154.311 176.067 154.311 175.047C153.331 173.699 152.331 172.365 151.311 171.047C151.311 170.387 151.311 169.727 151.311 169.047Z" fill="#142AA2"/>
<path d="M178.311 192.047C182.271 192.377 186.231 192.707 190.311 193.047C190.311 192.717 190.311 192.387 190.311 192.047C192.291 192.047 194.271 192.047 196.311 192.047C196.641 193.037 196.971 194.027 197.311 195.047C195.27 195.102 193.228 195.14 191.186 195.172C189.48 195.207 189.48 195.207 187.741 195.242C184.253 195.044 181.556 194.3 178.311 193.047C178.311 192.717 178.311 192.387 178.311 192.047Z" fill="#E7570A"/>
<path d="M6.3109 157.047C6.6409 157.707 6.9709 158.367 7.3109 159.047C6.85715 160.243 6.4034 161.44 5.9359 162.672C3.46391 169.546 3.5681 176.819 3.3109 184.047C2.9809 184.047 2.6509 184.047 2.3109 184.047C1.75204 166.019 1.75204 166.019 5.3109 158.047C5.6409 157.717 5.9709 157.387 6.3109 157.047Z" fill="#023B9F"/>
<path d="M137.311 24.0472C142.501 29.9783 143.721 36.3913 143.311 44.0472C142.981 44.0472 142.651 44.0472 142.311 44.0472C141.651 40.0872 140.991 36.1272 140.311 32.0472C139.651 32.0472 138.991 32.0472 138.311 32.0472C136.957 29.3384 137.246 27.0378 137.311 24.0472Z" fill="#EE4910"/>
<path d="M52.3109 128.047C55.9409 128.377 59.5709 128.707 63.3109 129.047C63.6409 130.037 63.9709 131.027 64.3109 132.047C61.3109 133.047 61.3109 133.047 58.3109 133.047C58.3109 132.387 58.3109 131.727 58.3109 131.047C57.5065 130.923 56.7022 130.8 55.8734 130.672C55.0278 130.466 54.1822 130.26 53.3109 130.047C52.9809 129.387 52.6509 128.727 52.3109 128.047Z" fill="#0B339C"/>
<path d="M66.3109 89.0472C67.5794 89.4803 67.5794 89.4803 68.8734 89.9222C72.3345 91.0549 75.8046 92.0654 79.3109 93.0472C79.3109 94.0372 79.3109 95.0272 79.3109 96.0472C69.7164 93.341 69.7164 93.341 66.3109 89.0472Z" fill="#EA450D"/>
<path d="M51.3109 25.0472C51.6409 25.7072 51.9709 26.3672 52.3109 27.0472C51.9809 28.0372 51.6509 29.0272 51.3109 30.0472C51.6409 30.7072 51.9709 31.3672 52.3109 32.0472C51.8572 32.4184 51.4034 32.7897 50.9359 33.1722C48.8406 35.5898 48.1908 38.0015 47.3109 41.0472C46.9809 41.0472 46.6509 41.0472 46.3109 41.0472C46.7545 34.8373 48.2262 30.4418 51.3109 25.0472Z" fill="#F0430A"/>
<path d="M164.311 185.047C168.101 186.475 171.582 188.21 175.123 190.172C176.587 190.98 176.587 190.98 178.08 191.805C178.816 192.215 179.553 192.625 180.311 193.047C176.902 194.184 176.308 193.915 173.123 192.61C172.408 192.322 171.693 192.035 170.955 191.739C170.141 191.396 170.141 191.396 169.311 191.047C169.311 190.387 169.311 189.727 169.311 189.047C168.651 189.047 167.991 189.047 167.311 189.047C167.311 188.387 167.311 187.727 167.311 187.047C166.321 186.717 165.331 186.387 164.311 186.047C164.311 185.717 164.311 185.387 164.311 185.047Z" fill="#0B24AA"/>
<path d="M14.3109 142.047C14.9709 142.377 15.6309 142.707 16.3109 143.047C15.9809 144.367 15.6509 145.687 15.3109 147.047C14.6509 147.047 13.9909 147.047 13.3109 147.047C13.3109 147.707 13.3109 148.367 13.3109 149.047C12.3209 149.047 11.3309 149.047 10.3109 149.047C9.65091 150.367 8.99091 151.687 8.31091 153.047C8.31091 149.441 9.12799 148.634 11.3109 145.86C11.8678 145.144 12.4247 144.429 12.9984 143.692C13.4315 143.149 13.8647 142.606 14.3109 142.047Z" fill="#08208F"/>
<path d="M45.3109 56.0472C46.3009 56.0472 47.2909 56.0472 48.3109 56.0472C48.3109 57.0372 48.3109 58.0272 48.3109 59.0472C48.9709 59.0472 49.6309 59.0472 50.3109 59.0472C49.9809 60.6972 49.6509 62.3472 49.3109 64.0472C48.3209 63.7172 47.3309 63.3872 46.3109 63.0472C45.9809 60.7372 45.6509 58.4272 45.3109 56.0472Z" fill="#ED530A"/>
<path d="M67.3109 8.04718C68.3009 8.70718 69.2909 9.36718 70.3109 10.0472C69.9809 11.3672 69.6509 12.6872 69.3109 14.0472C65.3109 14.0472 65.3109 14.0472 63.3109 13.0472C64.3109 10.0472 64.3109 10.0472 67.3109 8.04718Z" fill="#EE5707"/>
<path d="M55.3109 21.0472C56.5187 24.6704 55.854 25.6886 54.3109 29.0472C53.6509 29.0472 52.9909 29.0472 52.3109 29.0472C51.9809 29.7072 51.6509 30.3672 51.3109 31.0472C50.9809 30.3872 50.6509 29.7272 50.3109 29.0472C51.307 27.1019 51.307 27.1019 52.7484 24.9222C53.2215 24.1977 53.6946 23.4733 54.182 22.7269C54.5545 22.1726 54.9271 21.6183 55.3109 21.0472Z" fill="#ED5C02"/>
<path d="M21.3109 138.047C21.9709 138.377 22.6309 138.707 23.3109 139.047C22.9809 140.037 22.6509 141.027 22.3109 142.047C20.3309 142.377 18.3509 142.707 16.3109 143.047C16.3109 142.057 16.3109 141.067 16.3109 140.047C16.9503 139.903 17.5897 139.758 18.2484 139.61C20.2864 139.237 20.2864 139.237 21.3109 138.047Z" fill="#06379F"/>
<path d="M217.311 106.047C220.686 107.233 222.958 108.323 225.311 111.047C222.998 111.36 222.998 111.36 220.311 111.047C218.498 108.547 218.498 108.547 217.311 106.047Z" fill="#EB4608"/>
<path d="M81.3109 5.0472C78.2253 7.31602 76.8888 8.10172 72.9984 7.7347C72.1115 7.50783 71.2247 7.28095 70.3109 7.0472C73.8101 5.1032 77.5051 3.14429 81.3109 5.0472Z" fill="#ED5F0E"/>
<path d="M241.311 136.047C242.74 138.402 243.398 139.528 242.936 142.297C242.73 142.875 242.523 143.452 242.311 144.047C241.651 143.717 240.991 143.387 240.311 143.047C240.268 141.048 240.27 139.047 240.311 137.047C240.641 136.717 240.971 136.387 241.311 136.047Z" fill="#EC4D14"/>
<path d="M309.832 171V81.4H330.44L357.832 137.336L384.968 81.4H405.576V171H388.296V110.84L364.616 158.456H350.92L327.112 110.84V171H309.832ZM446.375 171V139.512L416.167 81.4H435.751L456.871 125.688H453.415L474.407 81.4H493.863L463.655 139.512V171H446.375ZM504.457 171V81.4H537.993C545.246 81.4 551.262 82.6373 556.041 85.112C560.82 87.5867 564.361 90.9147 566.665 95.096C568.969 99.2773 570.121 104.056 570.121 109.432C570.121 114.381 569.012 118.947 566.793 123.128C564.574 127.309 561.076 130.723 556.297 133.368C551.518 135.928 545.417 137.208 537.993 137.208H521.737V171H504.457ZM521.737 123.256H536.969C542.516 123.256 546.484 122.019 548.873 119.544C551.348 116.984 552.585 113.613 552.585 109.432C552.585 104.995 551.348 101.581 548.873 99.192C546.484 96.7173 542.516 95.48 536.969 95.48H521.737V123.256ZM583.082 171V81.4H641.962V95.352H600.362V118.776H638.122V132.216H600.362V157.048H641.962V171H583.082ZM665.131 171.64C661.888 171.64 659.286 170.701 657.323 168.824C655.36 166.861 654.379 164.472 654.379 161.656C654.379 158.84 655.36 156.493 657.323 154.616C659.286 152.653 661.888 151.672 665.131 151.672C668.203 151.672 670.72 152.653 672.683 154.616C674.646 156.493 675.627 158.84 675.627 161.656C675.627 164.472 674.646 166.861 672.683 168.824C670.72 170.701 668.203 171.64 665.131 171.64ZM700.571 171V95.352H674.331V81.4H743.835V95.352H717.723V171H700.571ZM794.426 172.536C785.722 172.536 778.042 170.573 771.386 166.648C764.73 162.723 759.525 157.304 755.77 150.392C752.015 143.395 750.138 135.331 750.138 126.2C750.138 117.069 752.015 109.048 755.77 102.136C759.525 95.1387 764.73 89.6773 771.386 85.752C778.042 81.8267 785.722 79.864 794.426 79.864C803.215 79.864 810.938 81.8267 817.594 85.752C824.25 89.6773 829.413 95.1387 833.082 102.136C836.837 109.048 838.714 117.069 838.714 126.2C838.714 135.331 836.837 143.395 833.082 150.392C829.413 157.304 824.25 162.723 817.594 166.648C810.938 170.573 803.215 172.536 794.426 172.536ZM794.426 157.048C799.887 157.048 804.581 155.811 808.506 153.336C812.517 150.776 815.631 147.192 817.85 142.584C820.069 137.976 821.178 132.515 821.178 126.2C821.178 119.8 820.069 114.339 817.85 109.816C815.631 105.208 812.517 101.667 808.506 99.192C804.581 96.7173 799.887 95.48 794.426 95.48C789.05 95.48 784.357 96.7173 780.346 99.192C776.335 101.667 773.221 105.208 771.002 109.816C768.783 114.339 767.674 119.8 767.674 126.2C767.674 132.515 768.783 137.976 771.002 142.584C773.221 147.192 776.335 150.776 780.346 153.336C784.357 155.811 789.05 157.048 794.426 157.048ZM853.457 171V81.4H886.993C894.246 81.4 900.262 82.6373 905.041 85.112C909.82 87.5867 913.361 90.9147 915.665 95.096C917.969 99.2773 919.121 104.056 919.121 109.432C919.121 114.381 918.012 118.947 915.793 123.128C913.574 127.309 910.076 130.723 905.297 133.368C900.518 135.928 894.417 137.208 886.993 137.208H870.737V171H853.457ZM870.737 123.256H885.969C891.516 123.256 895.484 122.019 897.873 119.544C900.348 116.984 901.585 113.613 901.585 109.432C901.585 104.995 900.348 101.581 897.873 99.192C895.484 96.7173 891.516 95.48 885.969 95.48H870.737V123.256Z" fill="#002A93"/>
</svg>
